<svg width="31" height="40" viewBox="0 0 31 40" fill="none" xmlns="http://www.w3.org/2000/svg">
<path d="M14.3885 38.8806C14.7129 39.1123 15.1015 39.2368 15.5001 39.2368C15.8987 39.2368 16.2874 39.1123 16.6118 38.8806C17.1945 38.4686 30.889 28.5805 30.8335 16.2371C30.8335 7.78273 23.9545 0.903809 15.5001 0.903809C7.04571 0.903809 0.166795 7.78272 0.166795 16.2276C0.111211 28.5805 13.8058 38.4686 14.3885 38.8806ZM15.5001 4.73714C21.8424 4.73714 27.0001 9.89489 27.0001 16.2467C27.0404 24.7529 18.5898 32.3908 15.5001 34.8959C12.4124 32.3889 3.95988 24.7491 4.00013 16.2371C4.00013 9.89489 9.15788 4.73714 15.5001 4.73714Z" fill="white"/>
</svg>
